PathFileType	4	(X/Y/Z)	Walk8.trc
DataRate	CameraRate	NumFrames	NumMarkers	Units	OrigDataRate	OrigDataStartFrame	OrigNumFrames
200.000000	200.000000	4	59	mm	200.000000	232	530
Frame#	Times		LBHD		C7		T10		LPSI		RPSI		RCAR		LElbowM		LTB1		RWRR		LLFC		LUA1		LFHD		RUA1		LACR1		LCAR		RWRU		RFA1		RElbowM		RTH3		LWRU		LFA1		CLAV		STRN		RACR1		RBack		RTB1		RBHD		RTH2		RCAL		RTB4		LWRR		RToe		RTB3		RFHD		RMT1		RTB2		RTH4		RMT5		RElbow		RTH1		LTB3		LElbow		LMT1		RMMAL		LTH1		LTH3		LTH4		RASI		RLFC		LTH2		LCAL		LLMAL		LMT5		LASI		RLMAL		LTB2		LTB4		LToe		LMMAL
			X1	Y1	Z1	X2	Y2	Z2	X3	Y3	Z3	X4	Y4	Z4	X5	Y5	Z5	X6	Y6	Z6	X7	Y7	Z7	X8	Y8	Z8	X9	Y9	Z9	X10	Y10	Z10	X11	Y11	Z11	X12	Y12	Z12	X13	Y13	Z13	X14	Y14	Z14	X15	Y15	Z15	X16	Y16	Z16	X17	Y17	Z17	X18	Y18	Z18	X19	Y19	Z19	X20	Y20	Z20	X21	Y21	Z21	X22	Y22	Z22	X23	Y23	Z23	X24	Y24	Z24	X25	Y25	Z25	X26	Y26	Z26	X27	Y27	Z27	X28	Y28	Z28	X29	Y29	Z29	X30	Y30	Z30	X31	Y31	Z31	X32	Y32	Z32	X33	Y33	Z33	X34	Y34	Z34	X35	Y35	Z35	X36	Y36	Z36	X37	Y37	Z37	X38	Y38	Z38	X39	Y39	Z39	X40	Y40	Z40	X41	Y41	Z41	X42	Y42	Z42	X43	Y43	Z43	X44	Y44	Z44	X45	Y45	Z45	X46	Y46	Z46	X47	Y47	Z47	X48	Y48	Z48	X49	Y49	Z49	X50	Y50	Z50	X51	Y51	Z51	X52	Y52	Z52	X53	Y53	Z53	X54	Y54	Z54	X55	Y55	Z55	X56	Y56	Z56	X57	Y57	Z57	X58	Y58	Z58	X59	Y59	Z59

232	1.16	-667.78	1455.3	-64.943	-675.6	1324.9	7.6308	-698.2	1060.6	3.211	-717.54	867.94	-43.376	-729.79	888.72	53.34	-400.07	758.82	289.14	-675.77	942.59	-182.41	-345.05	359.89	-46.213	-395.23	804.21	243.14	-418.73	448.46	-122.35	-605.59	1090.5	-237.04	-497.62	1486.1	-48.067	-569.69	1117.4	242.85	-592.86	1262.4	-156.69	-554.26	695.62	-309.72	-455.26	764.18	260.89	-516.55	856.52	284.63	-601.93	926.55	208.96	-672.63	543.7	168.25	-605.74	734.94	-303.55	-631.29	854.05	-282.61	-546.37	1252.5	11.466	-482.1	1147.7	10.996	-598.17	1271.1	163.2	-695.05	1226.5	138.67	-710.58	321.83	56.795	-667.62	1463.3	58.239	-575.1	621.15	165.68	-902.71	72.437	71.683	-751.27	239.17	55.351	-548.62	729.96	-256.47	-704.86	26.928	4.2763	-780.12	150.38	46.789	-492.43	1495.8	29.078	-759.31	44.747	7.9012	-768.25	241.39	124.37	-646.02	631.34	195.72	-771.08	34.09	67.329	-563.2	974.96	282.51	-619.08	712.16	225.09	-289.79	186.22	-37.587	-650.9	975.19	-251.17	-188.99	94.958	-38.778	-841.12	93.725	9.9915	-528.03	718.04	-181.38	-438.63	557.68	-131.91	-480.27	639.9	-157.7	-512.43	880.69	152.7	-689.11	444.74	145.72	-428.97	681.26	-124.88	-327.86	27.653	-33.194	-301.91	75.306	-77.414	-207.66	72.455	-91.161	-510.28	835.65	-142.68	-835.81	78.806	88.817	-352.09	259.56	-107.98	-326.11	269.96	-42.267	-141.21	97.685	-55.49	-280.36	88.439	-2.3953
233	1.165	-662.01	1455.1	-65.479	-669.74	1324.5	7.099	-691.91	1060.2	2.8738	-711.01	867.81	-44.078	-723.55	888.55	52.541	-394.42	758.11	288.37	-669.97	942.25	-182.66	-340.06	358.79	-45.282	-389.47	803.45	242.34	-412.68	448.01	-121.69	-599.8	1090.2	-237.48	-491.85	1485.8	-48.632	-563.41	1117.2	242.21	-587	1262.1	-157.27	-549.02	695.26	-310.32	-449.62	763.66	260.27	-510.61	856.14	283.9	-595.9	926.4	208.3	-667.66	543.5	168.11	-600.48	734.58	-304.02	-625.88	853.7	-282.99	-540.39	1252.3	10.855	-475.98	1147.6	10.363	-592.03	1270.9	162.71	-688.91	1226.2	138.22	-706.67	321.6	56.679	-661.83	1463	57.705	-569.9	620.64	165.81	-901.77	74.669	71.825	-748.37	239.46	55.33	-543.24	729.57	-257.15	-704.88	26.926	4.1811	-778.28	150.98	46.945	-486.64	1495.6	28.523	-758.87	44.992	7.9059	-765.41	241.92	124.33	-641.02	631.13	195.54	-770.66	34.321	67.298	-556.9	974.69	281.75	-614.08	711.95	224.85	-286.43	184.63	-36.389	-645.28	974.84	-251.49	-186.64	91.862	-36.87	-839.92	95.057	10.161	-521.12	717.89	-181.18	-432.21	557.31	-131.47	-473.6	639.64	-157.34	-500.72	880.64	152.31	-684.31	444.56	145.63	-422.07	680.9	-124.81	-326.45	27.093	-32.544	-299.65	74.025	-76.33	-205.38	69.786	-89.45	-503.5	835.3	-142.71	-834.82	80.284	89.294	-347.88	258.49	-106.9	-321.91	268.72	-41.232	-138.47	93.595	-53.258	-278.34	86.695	-1.18
234	1.17	-656.23	1455	-66.03	-663.87	1324.2	6.5545	-685.57	1059.8	2.5473	-704.44	867.74	-44.767	-717.25	888.44	51.763	-388.88	757.41	287.63	-664.13	941.97	-182.92	-335.2	357.75	-44.313	-383.81	802.7	241.56	-406.74	447.58	-121.04	-593.97	1089.9	-237.94	-486.05	1485.7	-49.204	-557.13	1117	241.57	-581.14	1261.8	-157.87	-543.75	694.95	-310.92	-444.1	763.19	259.68	-504.75	855.81	283.16	-589.92	926.32	207.62	-662.55	543.32	167.96	-595.19	734.26	-304.48	-620.43	853.41	-283.37	-534.39	1252.2	10.22	-469.82	1147.6	9.6933	-585.85	1270.8	162.19	-682.74	1226	137.75	-702.63	321.39	56.57	-656.03	1462.9	57.158	-564.58	620.18	165.92	-900.72	77.037	71.985	-745.36	239.79	55.318	-537.81	729.23	-257.81	-704.89	26.922	4.0883	-776.34	151.65	47.109	-480.84	1495.4	27.959	-758.39	45.254	7.9181	-762.43	242.5	124.32	-635.91	630.94	195.36	-770.19	34.568	67.279	-550.66	974.49	280.98	-608.98	711.78	224.6	-283.23	183.1	-35.197	-639.61	974.54	-251.8	-184.46	88.695	-34.98	-838.62	96.468	10.356	-514.09	717.83	-180.98	-425.83	556.97	-131.02	-466.89	639.44	-156.97	-489.09	880.59	151.92	-679.33	444.4	145.57	-415.11	680.54	-124.68	-325.29	26.672	-32	-297.56	72.827	-75.316	-203.29	67.076	-87.751	-496.7	835.06	-142.79	-833.74	81.829	89.77	-343.76	257.51	-105.83	-317.86	267.54	-40.188	-135.88	89.337	-51.018	-276.52	84.985	-0.01259
235	1.175	-650.43	1454.9	-66.593	-657.99	1324	6	-679.19	1059.5	2.2333	-697.83	867.74	-45.44	-710.9	888.37	51.011	-383.46	756.74	286.89	-658.25	941.75	-183.18	-330.48	356.78	-43.312	-378.24	801.98	240.79	-400.93	447.19	-120.41	-588.13	1089.6	-238.41	-480.24	1485.6	-49.782	-550.83	1117	240.91	-575.28	1261.6	-158.48	-538.44	694.69	-311.5	-438.7	762.77	259.12	-498.98	855.54	282.43	-583.99	926.34	206.93	-657.28	543.15	167.8	-589.85	734	-304.94	-614.94	853.16	-283.74	-528.37	1252.2	9.5664	-463.62	1147.7	8.9887	-579.66	1270.8	161.66	-676.54	1225.8	137.28	-698.46	321.23	56.47	-650.22	1462.8	56.599	-559.14	619.78	166.01	-899.55	79.548	72.159	-742.21	240.17	55.32	-532.34	728.95	-258.47	-704.91	26.915	3.9984	-774.28	152.38	47.285	-475.02	1495.3	27.391	-757.86	45.532	7.9373	-759.3	243.13	124.33	-630.67	630.79	195.19	-769.68	34.829	67.273	-544.48	974.37	280.22	-603.78	711.64	224.35	-280.17	181.64	-34.02	-633.91	974.3	-252.12	-182.42	85.506	-33.128	-837.21	97.964	10.577	-506.94	717.88	-180.79	-419.51	556.66	-130.57	-460.16	639.31	-156.59	-477.55	880.54	151.54	-674.18	444.26	145.55	-408.12	680.19	-124.5	-324.3	26.408	-31.57	-295.57	71.742	-74.388	-201.34	64.374	-86.08	-489.87	834.94	-142.93	-832.55	83.433	90.227	-339.69	256.64	-104.78	-313.93	266.44	-39.144	-133.38	84.976	-48.783	-274.83	83.347	1.0931
